<svg xmlns="http://www.w3.org/2000/svg" fill="none" viewBox="251.25 221 2170.45 558.25">
<path d="M1084.88 540.431C1084.88 502.007 1070.74 482.796 1042.46 482.796C1036.32 482.796 1030.18 483.596 1024.05 485.197C1018.18 486.798 1013.37 488.799 1009.64 491.201V599.667C1012.57 600.201 1016.31 600.735 1020.84 601.268C1025.38 601.535 1030.32 601.669 1035.65 601.669C1051.93 601.669 1064.2 596.065 1072.48 584.858C1080.75 573.651 1084.88 558.842 1084.88 540.431ZM1145.72 542.032C1145.72 558.842 1143.19 574.052 1138.12 587.66C1133.31 601.268 1126.24 612.876 1116.9 622.482C1107.56 632.087 1096.09 639.559 1082.48 644.895C1068.87 649.965 1053.4 652.5 1036.05 652.5C1028.85 652.5 1021.24 652.1 1013.24 651.299C1005.5 650.766 997.763 649.965 990.025 648.898C982.553 647.83 975.349 646.63 968.411 645.296C961.474 643.695 955.337 642.094 950 640.493V346.312L1009.64 336.706V441.57C1016.31 438.635 1023.25 436.367 1030.45 434.766C1037.65 433.165 1045.39 432.365 1053.66 432.365C1068.61 432.365 1081.81 435.033 1093.29 440.369C1104.76 445.439 1114.37 452.777 1122.11 462.383C1129.84 471.989 1135.71 483.596 1139.72 497.204C1143.72 510.546 1145.72 525.488 1145.72 542.032Z" fill="#254754"/>
<path d="M1268 605.671C1273.87 605.671 1279.48 605.538 1284.81 605.271C1290.15 605.004 1294.42 604.604 1297.62 604.07V558.842C1295.22 558.309 1291.62 557.775 1286.81 557.241C1282.01 556.708 1277.61 556.441 1273.61 556.441C1268 556.441 1262.67 556.841 1257.6 557.642C1252.79 558.175 1248.52 559.376 1244.79 561.244C1241.05 563.112 1238.12 565.647 1235.98 568.849C1233.85 572.05 1232.78 576.053 1232.78 580.856C1232.78 590.195 1235.85 596.732 1241.99 600.468C1248.39 603.937 1257.06 605.671 1268 605.671ZM1263.2 431.164C1280.81 431.164 1295.49 433.165 1307.23 437.167C1318.97 441.17 1328.31 446.907 1335.24 454.378C1342.45 461.849 1347.52 470.922 1350.45 481.595C1353.39 492.268 1354.86 504.142 1354.86 517.217V641.293C1346.32 643.161 1334.44 645.296 1319.23 647.697C1304.02 650.365 1285.61 651.699 1264 651.699C1250.39 651.699 1237.98 650.499 1226.78 648.097C1215.84 645.696 1206.36 641.827 1198.36 636.49C1190.35 630.887 1184.22 623.682 1179.95 614.877C1175.68 606.071 1173.54 595.265 1173.54 582.457C1173.54 570.183 1175.95 559.776 1180.75 551.238C1185.82 542.699 1192.49 535.895 1200.76 530.825C1209.03 525.755 1218.5 522.153 1229.18 520.018C1239.85 517.617 1250.92 516.416 1262.4 516.416C1270.14 516.416 1276.94 516.816 1282.81 517.617C1288.95 518.151 1293.88 518.951 1297.62 520.018V514.415C1297.62 504.275 1294.55 496.137 1288.41 490C1282.28 483.863 1271.6 480.794 1256.39 480.794C1246.26 480.794 1236.25 481.595 1226.38 483.196C1216.5 484.53 1207.96 486.531 1200.76 489.2L1193.16 441.17C1196.62 440.103 1200.89 439.035 1205.96 437.968C1211.3 436.634 1217.04 435.566 1223.17 434.766C1229.31 433.699 1235.72 432.898 1242.39 432.365C1249.32 431.564 1256.26 431.164 1263.2 431.164Z" fill="#254754"/>
<path d="M1464.42 512.814C1470.29 506.41 1476.29 499.739 1482.43 492.802C1488.83 485.864 1494.97 479.06 1500.84 472.389C1506.71 465.452 1512.18 458.914 1517.25 452.777C1522.59 446.64 1527.12 441.303 1530.86 436.767H1601.7C1587.56 453.044 1573.68 468.654 1560.08 483.596C1546.73 498.272 1532.06 513.481 1516.05 529.224C1524.05 536.429 1532.33 545.101 1540.86 555.24C1549.4 565.113 1557.67 575.386 1565.68 586.059C1573.68 596.732 1581.02 607.406 1587.69 618.079C1594.36 628.752 1599.97 638.491 1604.5 647.297H1536.06C1531.79 640.359 1526.86 632.755 1521.25 624.483C1515.91 615.944 1510.18 607.539 1504.04 599.267C1497.9 590.729 1491.37 582.59 1484.43 574.852C1477.76 567.114 1471.09 560.577 1464.42 555.24V647.297H1404.78V346.312L1464.42 336.706V512.814Z" fill="#254754"/>
<path d="M1709.1 605.671C1714.97 605.671 1720.58 605.538 1725.91 605.271C1731.25 605.004 1735.52 604.604 1738.72 604.07V558.842C1736.32 558.309 1732.72 557.775 1727.91 557.241C1723.11 556.708 1718.71 556.441 1714.7 556.441C1709.1 556.441 1703.76 556.841 1698.7 557.642C1693.89 558.175 1689.62 559.376 1685.89 561.244C1682.15 563.112 1679.22 565.647 1677.08 568.849C1674.95 572.05 1673.88 576.053 1673.88 580.856C1673.88 590.195 1676.95 596.732 1683.09 600.468C1689.49 603.937 1698.16 605.671 1709.1 605.671ZM1704.3 431.164C1721.91 431.164 1736.59 433.165 1748.33 437.167C1760.07 441.17 1769.41 446.907 1776.34 454.378C1783.55 461.849 1788.62 470.922 1791.55 481.595C1794.49 492.268 1795.95 504.142 1795.95 517.217V641.293C1787.42 643.161 1775.54 645.296 1760.33 647.697C1745.12 650.365 1726.71 651.699 1705.1 651.699C1691.49 651.699 1679.08 650.499 1667.88 648.097C1656.94 645.696 1647.46 641.827 1639.46 636.49C1631.45 630.887 1625.32 623.682 1621.05 614.877C1616.78 606.071 1614.64 595.265 1614.64 582.457C1614.64 570.183 1617.04 559.776 1621.85 551.238C1626.92 542.699 1633.59 535.895 1641.86 530.825C1650.13 525.755 1659.6 522.153 1670.28 520.018C1680.95 517.617 1692.02 516.416 1703.5 516.416C1711.24 516.416 1718.04 516.816 1723.91 517.617C1730.05 518.151 1734.98 518.951 1738.72 520.018V514.415C1738.72 504.275 1735.65 496.137 1729.51 490C1723.38 483.863 1712.7 480.794 1697.49 480.794C1687.35 480.794 1677.35 481.595 1667.48 483.196C1657.6 484.53 1649.06 486.531 1641.86 489.2L1634.26 441.17C1637.72 440.103 1641.99 439.035 1647.06 437.968C1652.4 436.634 1658.14 435.566 1664.27 434.766C1670.41 433.699 1676.82 432.898 1683.49 432.365C1690.42 431.564 1697.36 431.164 1704.3 431.164Z" fill="#254754"/>
<path d="M1929.93 651.299C1912.59 651.032 1898.45 649.165 1887.51 645.696C1876.83 642.227 1868.29 637.424 1861.89 631.287C1855.75 624.883 1851.48 617.278 1849.08 608.473C1846.95 599.401 1845.88 589.261 1845.88 578.054V346.312L1905.52 336.706V566.047C1905.52 571.383 1905.92 576.186 1906.72 580.456C1907.52 584.725 1908.98 588.327 1911.12 591.262C1913.52 594.197 1916.86 596.599 1921.13 598.467C1925.4 600.335 1931.13 601.535 1938.34 602.069L1929.93 651.299Z" fill="#254754"/>
<path d="M2054.83 605.671C2060.7 605.671 2066.3 605.538 2071.64 605.271C2076.98 605.004 2081.25 604.604 2084.45 604.07V558.842C2082.05 558.309 2078.44 557.775 2073.64 557.241C2068.84 556.708 2064.44 556.441 2060.43 556.441C2054.83 556.441 2049.49 556.841 2044.42 557.642C2039.62 558.175 2035.35 559.376 2031.62 561.244C2027.88 563.112 2024.94 565.647 2022.81 568.849C2020.68 572.05 2019.61 576.053 2019.61 580.856C2019.61 590.195 2022.68 596.732 2028.81 600.468C2035.22 603.937 2043.89 605.671 2054.83 605.671ZM2050.03 431.164C2067.64 431.164 2082.31 433.165 2094.05 437.167C2105.79 441.17 2115.13 446.907 2122.07 454.378C2129.28 461.849 2134.35 470.922 2137.28 481.595C2140.22 492.268 2141.68 504.142 2141.68 517.217V641.293C2133.14 643.161 2121.27 645.296 2106.06 647.697C2090.85 650.365 2072.44 651.699 2050.83 651.699C2037.22 651.699 2024.81 650.499 2013.6 648.097C2002.66 645.696 1993.19 641.827 1985.19 636.49C1977.18 630.887 1971.04 623.682 1966.78 614.877C1962.51 606.071 1960.37 595.265 1960.37 582.457C1960.37 570.183 1962.77 559.776 1967.58 551.238C1972.65 542.699 1979.32 535.895 1987.59 530.825C1995.86 525.755 2005.33 522.153 2016.01 520.018C2026.68 517.617 2037.75 516.416 2049.23 516.416C2056.96 516.416 2063.77 516.816 2069.64 517.617C2075.78 518.151 2080.71 518.951 2084.45 520.018V514.415C2084.45 504.275 2081.38 496.137 2075.24 490C2069.11 483.863 2058.43 480.794 2043.22 480.794C2033.08 480.794 2023.08 481.595 2013.2 483.196C2003.33 484.53 1994.79 486.531 1987.59 489.2L1979.98 441.17C1983.45 440.103 1987.72 439.035 1992.79 437.968C1998.13 436.634 2003.87 435.566 2010 434.766C2016.14 433.699 2022.54 432.898 2029.21 432.365C2036.15 431.564 2043.09 431.164 2050.03 431.164ZM2105.26 361.121L2039.22 416.755L2012 392.34L2068.84 327.5L2105.26 361.121Z" fill="#254754"/>
<path d="M2318.49 489.6C2313.15 488.266 2306.88 486.931 2299.67 485.597C2292.47 483.996 2284.73 483.196 2276.46 483.196C2272.72 483.196 2268.19 483.596 2262.85 484.397C2257.78 484.93 2253.91 485.597 2251.24 486.398V647.297H2191.61V447.974C2202.28 444.239 2214.82 440.77 2229.23 437.568C2243.91 434.099 2260.18 432.365 2278.06 432.365C2281.26 432.365 2285.13 432.631 2289.67 433.165C2294.2 433.432 2298.74 433.966 2303.28 434.766C2307.81 435.3 2312.35 436.1 2316.89 437.167C2321.42 437.968 2325.29 439.035 2328.49 440.369L2318.49 489.6ZM2200.01 357.919L2222.03 331.502L2262.05 362.321L2302.08 331.502L2324.89 357.919L2262.05 412.752L2200.01 357.919Z" fill="#254754"/>
<path d="M2416.1 647.297H2356.46V436.767H2416.1V647.297ZM2421.7 375.93C2421.7 386.87 2418.1 395.542 2410.89 401.946C2403.96 408.083 2395.68 411.151 2386.08 411.151C2376.47 411.151 2368.07 408.083 2360.86 401.946C2353.92 395.542 2350.46 386.87 2350.46 375.93C2350.46 364.99 2353.92 356.451 2360.86 350.314C2368.07 343.91 2376.47 340.708 2386.08 340.708C2395.68 340.708 2403.96 343.91 2410.89 350.314C2418.1 356.451 2421.7 364.99 2421.7 375.93Z" fill="#254754"/>
<path fill-rule="evenodd" clip-rule="evenodd" d="M525.808 228.159C509.93 218.614 490.07 218.614 474.192 228.159L285.234 341.753C270.196 350.794 261 367.042 261 384.571V615.429C261 632.958 270.196 649.206 285.234 658.247L474.192 771.841C490.07 781.386 509.93 781.386 525.808 771.841L714.766 658.247C729.804 649.206 739 632.958 739 615.429V384.571C739 367.042 729.804 350.794 714.766 341.753L525.808 228.159Z" fill="#00A2E2"/>
<mask id="mask0_67_1690" style="mask-type:alpha" maskUnits="userSpaceOnUse" x="261" y="221" width="478" height="558">
<path fill-rule="evenodd" clip-rule="evenodd" d="M525.808 228.159C509.93 218.614 490.07 218.614 474.192 228.159L285.234 341.753C270.196 350.794 261 367.042 261 384.571V615.429C261 632.958 270.196 649.206 285.234 658.247L474.192 771.841C490.07 781.386 509.93 781.386 525.808 771.841L714.766 658.247C729.804 649.206 739 632.958 739 615.429V384.571C739 367.042 729.804 350.794 714.766 341.753L525.808 228.159Z" fill="#00A2E2"/>
</mask>
<g mask="url(#mask0_67_1690)">
<rect x="200" y="200" width="600" height="600" fill="#00A2E2"/>
<g style="mix-blend-mode:multiply" opacity="0.15">
<path d="M256.25 637L815 330V779.25H256.25V637Z" fill="url(#paint0_linear_67_1690)"/>
</g>
<g style="mix-blend-mode:multiply" opacity="0.15">
<path d="M260.5 375L815 665.679V778.999H260.5V375Z" fill="url(#paint1_linear_67_1690)"/>
</g>
<g style="mix-blend-mode:multiply" opacity="0.2">
<path d="M261.5 714.986L815 392.75V779H336.784L261.5 714.986Z" fill="url(#paint2_linear_67_1690)"/>
</g>
<g style="mix-blend-mode:multiply" opacity="0.15">
<path d="M251.25 297.75L815 605.062V779H251.25V297.75Z" fill="url(#paint3_linear_67_1690)"/>
</g>
<path d="M474.192 228.159C490.07 218.614 509.93 218.614 525.808 228.159L714.766 341.753C729.804 350.794 739 367.042 739 384.571V615.429C739 632.958 729.804 649.206 714.766 658.247L525.808 771.841C509.93 781.386 490.07 781.386 474.192 771.841L285.234 658.247C270.196 649.206 261 632.958 261 615.429V384.571C261 367.042 270.196 350.794 285.234 341.753L474.192 228.159Z" fill="url(#paint4_linear_67_1690)" fill-opacity="0.25" style="mix-blend-mode:overlay"/>
</g>
<g filter="url(#filter0_d_67_1690)">
<path fill-rule="evenodd" clip-rule="evenodd" d="M343.927 384.617C333.77 390.399 327.5 401.176 327.5 412.85L327.5 574.246C327.5 592.195 342.072 606.745 360.047 606.745C378.022 606.745 392.594 592.195 392.594 574.246L392.594 431.731L501.049 369.988L607.406 431.572L607.406 437.361L565.39 460.762C555.084 466.501 548.697 477.362 548.697 489.145L548.697 510.943C548.697 522.726 555.084 533.587 565.39 539.326L607.406 562.727L607.406 568.306L526.305 614.224C510.669 623.077 505.18 642.911 514.046 658.525C522.913 674.139 542.776 679.619 558.413 670.766L656.007 615.509C666.2 609.738 672.5 598.94 672.5 587.238L672.5 543.641C672.5 531.858 666.113 520.998 655.807 515.258L628.49 500.044L655.807 484.83C666.113 479.09 672.5 468.23 672.5 456.447L672.5 412.85C672.5 401.261 666.32 390.549 656.28 384.735L517.514 304.385C507.491 298.581 495.133 298.536 485.067 304.266L343.927 384.617Z" fill="white"/>
</g>
<defs>
<filter id="filter0_d_67_1690" x="277.5" y="252" width="445" height="475" filterUnits="userSpaceOnUse" color-interpolation-filters="sRGB">
<feFlood flood-opacity="0" result="BackgroundImageFix"/>
<feColorMatrix in="SourceAlpha" type="matrix" values="0 0 0 0 0 0 0 0 0 0 0 0 0 0 0 0 0 0 127 0" result="hardAlpha"/>
<feOffset dy="2"/>
<feGaussianBlur stdDeviation="25"/>
<feColorMatrix type="matrix" values="0 0 0 0 0.0241368 0 0 0 0 0.312797 0 0 0 0 0.477035 0 0 0 0.2 0"/>
<feBlend mode="normal" in2="BackgroundImageFix" result="effect1_dropShadow_67_1690"/>
<feBlend mode="normal" in="SourceGraphic" in2="effect1_dropShadow_67_1690" result="shape"/>
</filter>
<linearGradient id="paint0_linear_67_1690" x1="621.75" y1="357.75" x2="406.75" y2="779" gradientUnits="userSpaceOnUse">
<stop stop-color="#007EB0"/>
<stop offset="1" stop-color="#007EB0" stop-opacity="0"/>
</linearGradient>
<linearGradient id="paint1_linear_67_1690" x1="537.75" y1="528.966" x2="372.036" y2="781.369" gradientUnits="userSpaceOnUse">
<stop stop-color="#007EB0"/>
<stop offset="1" stop-color="#007EB0" stop-opacity="0"/>
</linearGradient>
<linearGradient id="paint2_linear_67_1690" x1="628.92" y1="515.158" x2="840.902" y2="750.944" gradientUnits="userSpaceOnUse">
<stop stop-color="#007EB0"/>
<stop offset="1" stop-color="#007EB0" stop-opacity="0"/>
</linearGradient>
<linearGradient id="paint3_linear_67_1690" x1="531.974" y1="482.004" x2="439.723" y2="812.986" gradientUnits="userSpaceOnUse">
<stop stop-color="#007EB0"/>
<stop offset="1" stop-color="#007EB0" stop-opacity="0"/>
</linearGradient>
<linearGradient id="paint4_linear_67_1690" x1="458.25" y1="233.75" x2="632.985" y2="707.95" gradientUnits="userSpaceOnUse">
<stop stop-color="#73FFF7"/>
<stop offset="0.370031" stop-color="#99F9FF" stop-opacity="0"/>
</linearGradient>
</defs>
</svg>