<svg xmlns="http://www.w3.org/2000/svg" viewBox="0 0 210 210" fill="none" shape-rendering="auto"><metadata xmlns:rdf="http://www.w3.org/1999/02/22-rdf-syntax-ns#" xmlns:xsi="http://www.w3.org/2001/XMLSchema-instance" xmlns:dc="http://purl.org/dc/elements/1.1/" xmlns:dcterms="http://purl.org/dc/terms/"><rdf:RDF><rdf:Description><dc:title>Face Generator</dc:title><dc:creator>The Visual Team</dc:creator><dc:source xsi:type="dcterms:URI">https://www.figma.com/community/file/986078800058673824</dc:source><dcterms:license xsi:type="dcterms:URI">https://creativecommons.org/licenses/by/4.0/</dcterms:license><dc:rights>Remix of „Face Generator” (https://www.figma.com/community/file/986078800058673824) by „The Visual Team”, licensed under „CC BY 4.0” (https://creativecommons.org/licenses/by/4.0/)</dc:rights></rdf:Description></rdf:RDF></metadata><mask id="viewboxMask"><rect width="210" height="210" rx="105" ry="105" x="0" y="0" fill="#fff" /></mask><g mask="url(#viewboxMask)"><rect fill="#da9969" width="210" height="210" x="0" y="0" /><g transform="translate(86.8 138.9) scale(.71856)"><path d="M59 18.4A31 31 0 0 1 27.6 49 31 31 0 0 1-4 18.4c0-17 4.2-14.9 31.5-14.9 25 0 31.4-2 31.4 14.9Z" fill="#DE8383"/><path fill-rule="evenodd" clip-rule="evenodd" d="M58.8 19.7H-3.7v-1.2C-3.8 2.6-.5 2.7 19.5 2.8a829.2 829.2 0 0 0 15.2 0c19-.1 24-.2 24 15.7v1.2Z" fill="#F9F9F9"/></g><g transform="translate(2 11) scale(.71856)"><path d="M74 93.1h40.4v11H74zM74 60h40.4v11H74zM173.3 93.1h40.4v11h-40.4zM173.3 60h40.4v11h-40.4z" fill="#000"/></g><g transform="translate(15 89.2) scale(.71856)"><g fill="#000" fill-opacity=".2"><rect x="33" y="38.5" width="12.9" height="12.9" rx="6.4"/><rect x="57.1" y="24" width="12.9" height="14.5" rx="6.4"/><rect x="76.4" y="38.5" width="12.9" height="12.9" rx="6.4"/><rect x="166.4" y="38.5" width="12.9" height="12.9" rx="6.4"/><rect x="190.5" y="24" width="12.9" height="14.5" rx="6.4"/><rect x="209.8" y="38.5" width="12.9" height="12.9" rx="6.4"/></g></g><g transform="translate(80.3 79.8) scale(.71856)"><path d="M39 28c-3.7.8-11 4-11 10.5 0 8.2 7.3 10.6 11 11.7" stroke="#000" stroke-opacity=".5" stroke-width="4" stroke-linecap="round" stroke-linejoin="round"/></g></g></svg>