<svg xmlns="http://www.w3.org/2000/svg" viewBox="0 0 210 210" fill="none" shape-rendering="auto"><metadata xmlns:rdf="http://www.w3.org/1999/02/22-rdf-syntax-ns#" xmlns:xsi="http://www.w3.org/2001/XMLSchema-instance" xmlns:dc="http://purl.org/dc/elements/1.1/" xmlns:dcterms="http://purl.org/dc/terms/"><rdf:RDF><rdf:Description><dc:title>Face Generator</dc:title><dc:creator>The Visual Team</dc:creator><dc:source xsi:type="dcterms:URI">https://www.figma.com/community/file/986078800058673824</dc:source><dcterms:license xsi:type="dcterms:URI">https://creativecommons.org/licenses/by/4.0/</dcterms:license><dc:rights>Remix of „Face Generator” (https://www.figma.com/community/file/986078800058673824) by „The Visual Team”, licensed under „CC BY 4.0” (https://creativecommons.org/licenses/by/4.0/)</dc:rights></rdf:Description></rdf:RDF></metadata><mask id="viewboxMask"><rect width="210" height="210" rx="105" ry="105" x="0" y="0" fill="#fff" /></mask><g mask="url(#viewboxMask)"><rect fill="#f8b788" width="210" height="210" x="0" y="0" /><g transform="translate(86.8 138.9) scale(.71856)"><path d="M59 15a31 31 0 0 1-62 0C-3-2 10.8 11 28 11c17 0 31-13 31 4.1Z" fill="#DE8383"/><path fill-rule="evenodd" clip-rule="evenodd" d="M56.3 7A31 31 0 0 1-.3 7c2.5-1.7 6.8-.5 12.1 1 4.7 1.3 10.3 2.9 16.2 2.9 6 0 11.5-1.6 16.2-3 5.3-1.4 9.5-2.6 12-1Z" fill="#F9F9F9"/></g><g transform="translate(2 11) scale(.71856)"><path d="M171.2 63.2c4.3-3 11-9.2 24.1-9.2 11.1 0 20.4 6.8 22.1 9.2M71 63.2c4.4-3 11-9.2 24.1-9.2 11.1 0 20.4 6.8 22.1 9.2" stroke="#000" stroke-width="9.2" stroke-linecap="round"/><path d="M187.7 89.4a7 7 0 0 1 13.9 0v14a7 7 0 1 1-13.9 0v-14ZM87.5 89.4a7 7 0 1 1 13.9 0v14a7 7 0 0 1-13.9 0v-14Z" fill="#000"/></g><g transform="translate(15 89.2) scale(.71856)"><g fill="#FFC6C6"><rect x="21" y="16" width="43.4" height="43.4" rx="21.7"/><rect x="194" y="16" width="43.4" height="43.4" rx="21.7"/></g></g><g transform="translate(80.3 79.8) scale(.71856)"><path d="M18.6 38.3A10 10 0 0 0 29 45a10 10 0 0 0 19.4 0h.9a10 10 0 0 0 9.5-6.7 10 10 0 0 1-10.4 13.4 10 10 0 0 1-19.4 0H28a10 10 0 0 1-9.5-13.4Z" fill="#000" fill-opacity=".2"/></g></g></svg>