<svg xmlns="http://www.w3.org/2000/svg" viewBox="0 0 210 210" fill="none" shape-rendering="auto"><metadata xmlns:rdf="http://www.w3.org/1999/02/22-rdf-syntax-ns#" xmlns:xsi="http://www.w3.org/2001/XMLSchema-instance" xmlns:dc="http://purl.org/dc/elements/1.1/" xmlns:dcterms="http://purl.org/dc/terms/"><rdf:RDF><rdf:Description><dc:title>Face Generator</dc:title><dc:creator>The Visual Team</dc:creator><dc:source xsi:type="dcterms:URI">https://www.figma.com/community/file/986078800058673824</dc:source><dcterms:license xsi:type="dcterms:URI">https://creativecommons.org/licenses/by/4.0/</dcterms:license><dc:rights>Remix of „Face Generator” (https://www.figma.com/community/file/986078800058673824) by „The Visual Team”, licensed under „CC BY 4.0” (https://creativecommons.org/licenses/by/4.0/)</dc:rights></rdf:Description></rdf:RDF></metadata><mask id="viewboxMask"><rect width="210" height="210" rx="105" ry="105" x="0" y="0" fill="#fff" /></mask><g mask="url(#viewboxMask)"><rect fill="#a66637" width="210" height="210" x="0" y="0" /><g transform="translate(86.8 138.9) scale(.71856)"><path fill-rule="evenodd" clip-rule="evenodd" d="M59.2 13 63.7 9a3.2 3.2 0 0 1 4 5l-4.1 3.5-2.3 2a49 49 0 0 1-33.7 11.8 51 51 0 0 1-38.3-17.8 3.2 3.2 0 0 1 5-4c4 5 16.3 15.4 33.3 15.4 11 0 17.7-2.3 22.7-5.2a48 48 0 0 0 9-6.9Z" fill="#000"/></g><g transform="translate(2 11) scale(.71856)"><path d="M120.9 100.5s-24.3 11.7-35.7 11.7c-11.5 0-31.2-11.7-31.2-11.7s22-11.7 33.5-11.7c11.4 0 33.4 11.7 33.4 11.7ZM235.3 100.5s-24.3 11.7-35.7 11.7c-11.5 0-31.2-11.7-31.2-11.7s22-11.7 33.5-11.7c11.4 0 33.4 11.7 33.4 11.7Z" fill="#fff"/><circle cx="89.1" cy="100.5" r="11.7" fill="#000"/><circle cx="200.2" cy="100.5" r="11.7" fill="#000"/><path fill="#403E3E" d="M49 52h76.9v20.1H49zM161.4 52h76.9v20.1h-76.9z"/></g><g transform="translate(15 89.2) scale(.71856)"><g fill="#F88888"><rect x="11" y="16" width="56.3" height="43.4" rx="21.7"/><rect x="191" y="16" width="56.3" height="43.4" rx="21.7"/></g></g><g transform="translate(80.3 79.8) scale(.71856)"><path d="M39 28c-3.7.8-11 4-11 10.5 0 8.2 7.3 10.6 11 11.7" stroke="#000" stroke-opacity=".5" stroke-width="4" stroke-linecap="round" stroke-linejoin="round"/></g></g></svg>