<svg xmlns="http://www.w3.org/2000/svg" viewBox="0 0 210 210" fill="none" shape-rendering="auto"><metadata xmlns:rdf="http://www.w3.org/1999/02/22-rdf-syntax-ns#" xmlns:xsi="http://www.w3.org/2001/XMLSchema-instance" xmlns:dc="http://purl.org/dc/elements/1.1/" xmlns:dcterms="http://purl.org/dc/terms/"><rdf:RDF><rdf:Description><dc:title>Face Generator</dc:title><dc:creator>The Visual Team</dc:creator><dc:source xsi:type="dcterms:URI">https://www.figma.com/community/file/986078800058673824</dc:source><dcterms:license xsi:type="dcterms:URI">https://creativecommons.org/licenses/by/4.0/</dcterms:license><dc:rights>Remix of „Face Generator” (https://www.figma.com/community/file/986078800058673824) by „The Visual Team”, licensed under „CC BY 4.0” (https://creativecommons.org/licenses/by/4.0/)</dc:rights></rdf:Description></rdf:RDF></metadata><mask id="viewboxMask"><rect width="210" height="210" rx="105" ry="105" x="0" y="0" fill="#fff" /></mask><g mask="url(#viewboxMask)"><rect fill="#89532c" width="210" height="210" x="0" y="0" /><g transform="translate(86.8 138.9) scale(.71856)"><path d="M59 19.1a31 31 0 0 1-31.5 30.6A31 31 0 0 1-3.9 19.1c0-17 4.2-14.9 31.4-14.9 25.2 0 31.5-2 31.5 15Z" fill="#DE8383"/><path fill-rule="evenodd" clip-rule="evenodd" d="M58.8 17.7H-4c.2-14.1 4.1-14 23.5-14l8 .1h7.2c18.4-.2 23.7-.2 24 14Z" fill="#F9F9F9"/><path fill-rule="evenodd" clip-rule="evenodd" d="M53.8 35.7A31.7 31.7 0 0 1 27.7 49c-11 0-20.8-5.5-26.4-13.8a42.7 42.7 0 0 1 26-7.6 42 42 0 0 1 26.5 8Z" fill="#C06E6E"/></g><g transform="translate(2 11) scale(.71856)"><path d="M78.2 51.4c3.1-2.5 8-7.4 17.3-7.4 8 0 14.6 5.4 15.8 7.4M179.2 51.4c3-2.5 7.9-7.4 17.2-7.4 8 0 14.7 5.4 15.9 7.4" stroke="#000" stroke-width="3.7" stroke-linecap="round"/><rect x="72" y="64.7" width="43.3" height="52.9" rx="14.4" fill="#fff"/><rect x="173" y="64.7" width="43.3" height="52.9" rx="14.4" fill="#fff"/><path d="M184 76.7a12 12 0 0 1 12.2-12l10 .1a12 12 0 0 1 11.8 12V106a12 12 0 0 1-12 12h-10a12 12 0 0 1-12-12V76.7ZM83 76.7a12 12 0 0 1 12.2-12l10 .1a12 12 0 0 1 11.8 12V106a12 12 0 0 1-12 12H95a12 12 0 0 1-12-12V76.7Z" fill="#757575"/><rect x="90.6" y="76.2" width="18.6" height="29" rx="9.3" fill="#000"/><rect x="191.6" y="76.2" width="18.6" height="29" rx="9.3" fill="#000"/></g><g transform="translate(15 89.2) scale(.71856)"></g><g transform="translate(80.3 79.8) scale(.71856)"><path d="M39 28c-3.7.8-11 4-11 10.5 0 8.2 7.3 10.6 11 11.7" stroke="#000" stroke-opacity=".5" stroke-width="4" stroke-linecap="round" stroke-linejoin="round"/></g></g></svg>