<svg xmlns="http://www.w3.org/2000/svg" viewBox="0 0 210 210" fill="none" shape-rendering="auto"><metadata xmlns:rdf="http://www.w3.org/1999/02/22-rdf-syntax-ns#" xmlns:xsi="http://www.w3.org/2001/XMLSchema-instance" xmlns:dc="http://purl.org/dc/elements/1.1/" xmlns:dcterms="http://purl.org/dc/terms/"><rdf:RDF><rdf:Description><dc:title>Face Generator</dc:title><dc:creator>The Visual Team</dc:creator><dc:source xsi:type="dcterms:URI">https://www.figma.com/community/file/986078800058673824</dc:source><dcterms:license xsi:type="dcterms:URI">https://creativecommons.org/licenses/by/4.0/</dcterms:license><dc:rights>Remix of „Face Generator” (https://www.figma.com/community/file/986078800058673824) by „The Visual Team”, licensed under „CC BY 4.0” (https://creativecommons.org/licenses/by/4.0/)</dc:rights></rdf:Description></rdf:RDF></metadata><mask id="viewboxMask"><rect width="210" height="210" rx="105" ry="105" x="0" y="0" fill="#fff" /></mask><g mask="url(#viewboxMask)"><rect fill="#a66637" width="210" height="210" x="0" y="0" /><g transform="translate(86.8 138.9) scale(.71856)"><path d="M82 34.6c0 16.9-24.2 4-54.2 4-29.9 0-54.2 12.9-54.2-4C-26.4 17.6-2 4 27.8 4c30 0 54.3 13.7 54.3 30.6Z" fill="#DE8383"/><path fill-rule="evenodd" clip-rule="evenodd" d="M69.2 15.1c-9.8 3.2-24.8 5.3-41.7 5.3-16.5 0-31.2-2-41-5.1A71 71 0 0 1 28 3.5C44.7 3.5 59.6 8 69.2 15Z" fill="#F9F9F9"/></g><g transform="translate(2 11) scale(.71856)"><path d="M74 93.1h40.4v11H74zM74 60h40.4v11H74zM173.3 93.1h40.4v11h-40.4zM173.3 60h40.4v11h-40.4z" fill="#000"/></g><g transform="translate(15 89.2) scale(.71856)"><g fill="#000" fill-opacity=".2"><rect x="33" y="38.5" width="12.9" height="12.9" rx="6.4"/><rect x="57.1" y="24" width="12.9" height="14.5" rx="6.4"/><rect x="76.4" y="38.5" width="12.9" height="12.9" rx="6.4"/><rect x="166.4" y="38.5" width="12.9" height="12.9" rx="6.4"/><rect x="190.5" y="24" width="12.9" height="14.5" rx="6.4"/><rect x="209.8" y="38.5" width="12.9" height="12.9" rx="6.4"/></g></g><g transform="translate(80.3 79.8) scale(.71856)"><path d="M5.6 34.4a17 17 0 0 0 16.3 21.4h33.7A16.9 16.9 0 0 0 72 34.4C70 41.6 63.4 47 55.6 47H22c-7.8 0-14.4-5.3-16.3-12.5Z" fill="#000" fill-opacity=".2"/></g></g></svg>